<?xml version="1.0" encoding="UTF-8"?>
<svg xmlns="http://www.w3.org/2000/svg" xmlns:xlink="http://www.w3.org/1999/xlink" viewBox="0 0 48 48" width="48px" height="48px">
<g id="surface12907846">
<path style=" stroke:none;fill-rule:nonzero;fill:rgb(94.509804%,76.862746%,5.882353%);fill-opacity:1;" d="M 7.5 7.5 L 7.5 40.5 L 40.5 40.5 L 40.5 7.5 Z M 10.5 10.5 L 37.5 10.5 L 37.5 37.5 L 10.5 37.5 Z M 16.5 15 L 16.5 32.984375 C 25.394531 32.984375 27.175781 33.105469 28.839844 32.609375 C 29.816406 32.308594 32.484375 31.351562 32.484375 27.976562 C 32.484375 26.476562 32.035156 23.9375 29.09375 23.308594 L 29.09375 23.265625 L 28.539062 23.265625 C 30.039062 22.589844 30.984375 21.316406 30.984375 19.441406 C 30.984375 18.960938 31.117188 15 25.867188 15 Z M 19.5 18 L 25.5 18 C 27.761719 18 27.984375 19.28125 27.984375 20.234375 C 27.984375 22.566406 25.546875 22.5 25.5 22.5 L 19.5 22.5 Z M 19.5 25.5 L 26.640625 25.5 C 29.429688 25.5 29.484375 27.265625 29.484375 27.722656 C 29.484375 30.0625 27.066406 30 26.773438 30 L 19.5 30 Z M 19.5 25.5 "/>
</g>
</svg>
