<?xml version="1.0" encoding="UTF-8"?>
<svg xmlns="http://www.w3.org/2000/svg" xmlns:xlink="http://www.w3.org/1999/xlink" viewBox="0 0 48 48" width="48px" height="48px">
<g id="surface12952015">
<path style=" stroke:none;fill-rule:nonzero;fill:rgb(94.509804%,76.862746%,5.882353%);fill-opacity:1;" d="M 7.5 7.5 L 7.5 40.5 L 40.5 40.5 L 40.5 7.5 Z M 10.5 10.5 L 37.5 10.5 L 37.5 37.5 L 10.5 37.5 Z M 30.367188 22.5 C 28.230469 22.5 26.847656 23.867188 26.847656 25.679688 C 26.847656 27.644531 28 28.585938 29.738281 29.328125 L 30.339844 29.585938 C 31.4375 30.070312 32.09375 30.351562 32.09375 31.179688 C 32.09375 31.875 31.453125 32.375 30.453125 32.375 C 29.273438 32.375 28.601562 31.75 28.085938 30.910156 L 26.121094 32.035156 C 26.820312 33.429688 28.273438 34.5 30.511719 34.5 C 32.789062 34.5 34.5 33.316406 34.5 31.152344 C 34.5 29.128906 33.34375 28.230469 31.292969 27.359375 L 30.695312 27.101562 C 29.65625 26.648438 29.210938 26.347656 29.210938 25.632812 C 29.210938 25.050781 29.652344 24.59375 30.367188 24.59375 C 31.066406 24.59375 31.503906 24.894531 31.917969 25.632812 L 33.800781 24.425781 C 33.003906 23.027344 31.90625 22.5 30.367188 22.5 Z M 21.589844 22.644531 L 21.589844 30.835938 C 21.589844 32.035156 21.078125 32.347656 20.292969 32.347656 C 19.46875 32.347656 19.113281 31.777344 18.742188 31.105469 L 16.777344 32.289062 C 17.34375 33.503906 18.46875 34.5 20.394531 34.5 C 22.53125 34.5 24 33.359375 24 30.863281 L 24 22.644531 Z M 21.589844 22.644531 "/>
</g>
</svg>
